<svg width="50" height="50" viewBox="0 0 50 50" fill="none" xmlns="http://www.w3.org/2000/svg">
<path d="M29.45 18.65C29.3252 18.65 29.2017 18.6746 29.0865 18.7223C28.9712 18.7701 28.8665 18.84 28.7782 18.9282C28.69 19.0165 28.6201 19.1212 28.5723 19.2365C28.5246 19.3517 28.5 19.4752 28.5 19.6V23.775L25 19.125C24.9128 18.9835 24.7917 18.866 24.6476 18.783C24.5036 18.7001 24.3412 18.6544 24.175 18.65C24.0502 18.65 23.9267 18.6746 23.8115 18.7223C23.6962 18.7701 23.5915 18.84 23.5032 18.9282C23.415 19.0165 23.3451 19.1212 23.2973 19.2365C23.2496 19.3517 23.225 19.4752 23.225 19.6V26.7C23.225 26.8248 23.2496 26.9483 23.2973 27.0635C23.3451 27.1788 23.415 27.2835 23.5032 27.3718C23.5915 27.46 23.6962 27.5299 23.8115 27.5777C23.9267 27.6254 24.0502 27.65 24.175 27.65C24.2998 27.65 24.4233 27.6254 24.5386 27.5777C24.6538 27.5299 24.7585 27.46 24.8468 27.3718C24.935 27.2835 25.0049 27.1788 25.0527 27.0635C25.1004 26.9483 25.125 26.8248 25.125 26.7V22.5L28.6 27.275C28.6885 27.4082 28.8214 27.5056 28.975 27.55C29.0902 27.5758 29.2098 27.5758 29.325 27.55C29.4346 27.5899 29.5515 27.606 29.6679 27.5974C29.7842 27.5888 29.8974 27.5556 30 27.5L30.25 27.325C30.4255 27.144 30.524 26.9021 30.525 26.65V19.6C30.5262 19.464 30.4981 19.3293 30.4428 19.2051C30.3874 19.0808 30.306 18.9699 30.2041 18.8799C30.1022 18.7898 29.9821 18.7227 29.852 18.683C29.7219 18.6434 29.5848 18.6321 29.45 18.65ZM18 25.675H15.35V19.6C15.35 19.348 15.2499 19.1064 15.0718 18.9282C14.8936 18.7501 14.652 18.65 14.4 18.65C14.148 18.65 13.9064 18.7501 13.7282 18.9282C13.5501 19.1064 13.45 19.348 13.45 19.6V26.7C13.45 26.952 13.5501 27.1936 13.7282 27.3718C13.9064 27.5499 14.148 27.65 14.4 27.65H18C18.2543 27.6501 18.4986 27.5508 18.6807 27.3733C18.8629 27.1958 18.9685 26.9542 18.975 26.7C18.9818 26.5678 18.9616 26.4356 18.9156 26.3115C18.8697 26.1874 18.7989 26.0739 18.7077 25.978C18.6165 25.8821 18.5067 25.8058 18.385 25.7537C18.2634 25.7016 18.1324 25.6748 18 25.675ZM20.775 18.65C20.5207 18.6499 20.2764 18.7492 20.0943 18.9267C19.9121 19.1042 19.8065 19.3458 19.8 19.6V26.7C19.8065 26.9542 19.9121 27.1958 20.0943 27.3733C20.2764 27.5508 20.5207 27.6501 20.775 27.65C21.027 27.65 21.2686 27.5499 21.4468 27.3718C21.6249 27.1936 21.725 26.952 21.725 26.7V19.6C21.725 19.348 21.6249 19.1064 21.4468 18.9282C21.2686 18.7501 21.027 18.65 20.775 18.65ZM39.775 0H10.225C7.51519 0.00660127 4.91826 1.08599 3.00213 3.00213C1.08599 4.91826 0.00660127 7.51519 0 10.225V39.775C0.00660127 42.4848 1.08599 45.0817 3.00213 46.9979C4.91826 48.914 7.51519 49.9934 10.225 50H39.775C42.4848 49.9934 45.0817 48.914 46.9979 46.9979C48.914 45.0817 49.9934 42.4848 50 39.775V10.225C49.9934 7.51519 48.914 4.91826 46.9979 3.00213C45.0817 1.08599 42.4848 0.00660127 39.775 0ZM40.55 30.7C40.4516 30.849 40.343 30.991 40.225 31.125C39.6289 31.8586 38.9586 32.5289 38.225 33.125C33.225 37.8 24.825 43.4 23.7 42.525C22.575 41.65 25.3 38.125 22.375 37.525C22.1675 37.5511 21.9575 37.5511 21.75 37.525C13.15 36.325 6.75 30.3 6.75 23.075C6.75 14.95 14.975 8.375 25.1 8.375C35.225 8.375 43.45 14.95 43.45 23.075C43.3633 25.8695 42.3422 28.5542 40.55 30.7ZM36.275 18.675H32.5C32.3752 18.675 32.2517 18.6996 32.1365 18.7473C32.0212 18.7951 31.9165 18.865 31.8282 18.9532C31.74 19.0415 31.6701 19.1462 31.6223 19.2615C31.5746 19.3767 31.55 19.5002 31.55 19.625V26.725C31.55 26.977 31.6501 27.2186 31.8282 27.3968C32.0064 27.5749 32.248 27.675 32.5 27.675H36.2C36.452 27.675 36.6936 27.5749 36.8718 27.3968C37.0499 27.2186 37.15 26.977 37.15 26.725C37.15 26.6002 37.1254 26.4767 37.0777 26.3615C37.0299 26.2462 36.96 26.1415 36.8718 26.0532C36.7835 25.965 36.6788 25.8951 36.5635 25.8473C36.4483 25.7996 36.3248 25.775 36.2 25.775H33.625V24.275H36.275C36.5292 24.2685 36.7708 24.1629 36.9483 23.9807C37.1258 23.7986 37.2251 23.5543 37.225 23.3C37.225 23.048 37.1249 22.8064 36.9468 22.6282C36.7686 22.4501 36.527 22.35 36.275 22.35H33.625V20.825H36.275C36.3998 20.825 36.5233 20.8004 36.6385 20.7527C36.7538 20.7049 36.8585 20.635 36.9468 20.5468C37.035 20.4585 37.1049 20.3538 37.1527 20.2386C37.2004 20.1233 37.225 19.9998 37.225 19.875C37.2643 19.7313 37.2692 19.5804 37.2395 19.4344C37.2097 19.2884 37.146 19.1515 37.0535 19.0347C36.961 18.9179 36.8424 18.8245 36.7071 18.762C36.5719 18.6995 36.4239 18.6697 36.275 18.675Z" fill="white"/>
</svg>
