<svg width="71" height="71" viewBox="0 0 71 71" fill="none" xmlns="http://www.w3.org/2000/svg">
<path d="M38.5412 5.91663C41.8693 5.9255 43.5586 5.94325 45.017 5.98467L45.5909 6.00538C46.2536 6.02904 46.9074 6.05863 47.6973 6.09413C50.8449 6.24204 52.9927 6.73904 54.8771 7.46975C56.8296 8.22117 58.4745 9.23883 60.1193 10.8807C61.6242 12.3591 62.7883 14.1481 63.5303 16.1229C64.261 18.0073 64.758 20.1551 64.9059 23.3057C64.9414 24.0926 64.971 24.7464 64.9946 25.412L65.0124 25.986C65.0568 27.4415 65.0745 29.1307 65.0804 32.4588L65.0834 34.6657V38.5411C65.0906 40.6989 65.0679 42.8568 65.0153 45.014L64.9976 45.5879C64.9739 46.2535 64.9443 46.9073 64.9088 47.6942C64.7609 50.8448 64.258 52.9896 63.5303 54.877C62.7883 56.8518 61.6242 58.6408 60.1193 60.1192C58.6409 61.6241 56.8519 62.7882 54.8771 63.5302C52.9927 64.2609 50.8449 64.7579 47.6973 64.9058L45.5909 64.9945L45.017 65.0123C43.5586 65.0537 41.8693 65.0744 38.5412 65.0803L36.3343 65.0833H32.4618C30.303 65.0909 28.1442 65.0682 25.9861 65.0152L25.4121 64.9975C24.7099 64.9709 24.0077 64.9403 23.3058 64.9058C20.1581 64.7579 18.0104 64.2609 16.123 63.5302C14.1493 62.7878 12.3613 61.6237 10.8838 60.1192C9.37781 58.6411 8.21271 56.8521 7.46985 54.877C6.73914 52.9926 6.24214 50.8448 6.09422 47.6942L6.00547 45.5879L5.99068 45.014C5.93615 42.8568 5.91149 40.699 5.91672 38.5411V32.4588C5.90853 30.301 5.93023 28.1432 5.98181 25.986L6.00251 25.412C6.02618 24.7464 6.05576 24.0926 6.09126 23.3057C6.23918 20.1551 6.73618 18.0103 7.46689 16.1229C8.21148 14.1473 9.37863 12.3582 10.8867 10.8807C12.3634 9.37654 14.1503 8.21251 16.123 7.46975C18.0104 6.73904 20.1552 6.24204 23.3058 6.09413C24.0927 6.05863 24.7495 6.02904 25.4121 6.00538L25.9861 5.98763C28.1433 5.93506 30.3011 5.91238 32.4589 5.91958L38.5412 5.91663ZM35.5001 20.7083C31.5771 20.7083 27.8147 22.2667 25.0408 25.0407C22.2668 27.8146 20.7084 31.577 20.7084 35.5C20.7084 39.423 22.2668 43.1853 25.0408 45.9592C27.8147 48.7332 31.5771 50.2916 35.5001 50.2916C39.423 50.2916 43.1854 48.7332 45.9593 45.9592C48.7333 43.1853 50.2917 39.423 50.2917 35.5C50.2917 31.577 48.7333 27.8146 45.9593 25.0407C43.1854 22.2667 39.423 20.7083 35.5001 20.7083ZM35.5001 26.625C36.6655 26.6248 37.8196 26.8541 38.8965 27.3C39.9733 27.7458 40.9518 28.3994 41.7761 29.2233C42.6003 30.0473 43.2542 31.0256 43.7004 32.1023C44.1466 33.179 44.3763 34.333 44.3765 35.4985C44.3767 36.664 44.1474 37.8181 43.7015 38.8949C43.2557 39.9717 42.6021 40.9502 41.7782 41.7745C40.9542 42.5987 39.9759 43.2526 38.8992 43.6988C37.8225 44.145 36.6685 44.3748 35.503 44.375C33.1492 44.375 30.8918 43.4399 29.2274 41.7755C27.5631 40.1111 26.628 37.8538 26.628 35.5C26.628 33.1462 27.5631 30.8888 29.2274 29.2244C30.8918 27.56 33.1492 26.625 35.503 26.625M51.0343 16.2708C50.0535 16.2708 49.1129 16.6604 48.4194 17.3539C47.7259 18.0474 47.3363 18.988 47.3363 19.9687C47.3363 20.9495 47.7259 21.89 48.4194 22.5835C49.1129 23.277 50.0535 23.6666 51.0343 23.6666C52.015 23.6666 52.9556 23.277 53.6491 22.5835C54.3426 21.89 54.7322 20.9495 54.7322 19.9687C54.7322 18.988 54.3426 18.0474 53.6491 17.3539C52.9556 16.6604 52.015 16.2708 51.0343 16.2708Z" fill="white"/>
</svg>
